<svg width="23" height="23" viewBox="0 0 23 23" fill="none" xmlns="http://www.w3.org/2000/svg">
<path d="M8.3671 12.4111C8.60268 12.4111 8.82861 12.3175 8.9952 12.1509C9.16178 11.9843 9.25536 11.7584 9.25536 11.5228C9.25536 11.2872 9.16178 11.0613 8.9952 10.8947C8.82861 10.7281 8.60268 10.6346 8.3671 10.6346C8.13151 10.6346 7.90558 10.7281 7.739 10.8947C7.57242 11.0613 7.47883 11.2872 7.47883 11.5228C7.47883 11.7584 7.57242 11.9843 7.739 12.1509C7.90558 12.3175 8.13151 12.4111 8.3671 12.4111ZM9.25536 14.4837C9.25536 14.7193 9.16178 14.9452 8.9952 15.1118C8.82861 15.2784 8.60268 15.372 8.3671 15.372C8.13151 15.372 7.90558 15.2784 7.739 15.1118C7.57242 14.9452 7.47883 14.7193 7.47883 14.4837C7.47883 14.2481 7.57242 14.0222 7.739 13.8556C7.90558 13.689 8.13151 13.5954 8.3671 13.5954C8.60268 13.5954 8.82861 13.689 8.9952 13.8556C9.16178 14.0222 9.25536 14.2481 9.25536 14.4837ZM11.6241 15.372C11.8597 15.372 12.0856 15.2784 12.2522 15.1118C12.4188 14.9452 12.5123 14.7193 12.5123 14.4837C12.5123 14.2481 12.4188 14.0222 12.2522 13.8556C12.0856 13.689 11.8597 13.5954 11.6241 13.5954C11.3885 13.5954 11.1626 13.689 10.996 13.8556C10.8294 14.0222 10.7358 14.2481 10.7358 14.4837C10.7358 14.7193 10.8294 14.9452 10.996 15.1118C11.1626 15.2784 11.3885 15.372 11.6241 15.372ZM12.5123 11.5228C12.5123 11.7584 12.4188 11.9843 12.2522 12.1509C12.0856 12.3175 11.8597 12.4111 11.6241 12.4111C11.3885 12.4111 11.1626 12.3175 10.996 12.1509C10.8294 11.9843 10.7358 11.7584 10.7358 11.5228C10.7358 11.2872 10.8294 11.0613 10.996 10.8947C11.1626 10.7281 11.3885 10.6346 11.6241 10.6346C11.8597 10.6346 12.0856 10.7281 12.2522 10.8947C12.4188 11.0613 12.5123 11.2872 12.5123 11.5228ZM14.881 12.4111C15.1166 12.4111 15.3426 12.3175 15.5091 12.1509C15.6757 11.9843 15.7693 11.7584 15.7693 11.5228C15.7693 11.2872 15.6757 11.0613 15.5091 10.8947C15.3426 10.7281 15.1166 10.6346 14.881 10.6346C14.6455 10.6346 14.4195 10.7281 14.2529 10.8947C14.0864 11.0613 13.9928 11.2872 13.9928 11.5228C13.9928 11.7584 14.0864 11.9843 14.2529 12.1509C14.4195 12.3175 14.6455 12.4111 14.881 12.4111ZM4.51794 7.08149C4.51794 6.29622 4.82989 5.5431 5.38517 4.98783C5.94044 4.43256 6.69356 4.12061 7.47883 4.12061H15.7693C16.5546 4.12061 17.3077 4.43256 17.863 4.98783C18.4183 5.5431 18.7302 6.29622 18.7302 7.08149V15.372C18.7302 16.1573 18.4183 16.9104 17.863 17.4656C17.3077 18.0209 16.5546 18.3329 15.7693 18.3329H7.47883C6.69356 18.3329 5.94044 18.0209 5.38517 17.4656C4.82989 16.9104 4.51794 16.1573 4.51794 15.372V7.08149ZM7.47883 5.30496C7.00767 5.30496 6.5558 5.49213 6.22263 5.82529C5.88947 6.15846 5.7023 6.61033 5.7023 7.08149V7.67367H17.5458V7.08149C17.5458 6.61033 17.3587 6.15846 17.0255 5.82529C16.6923 5.49213 16.2405 5.30496 15.7693 5.30496H7.47883ZM5.7023 15.372C5.7023 15.8431 5.88947 16.295 6.22263 16.6282C6.5558 16.9613 7.00767 17.1485 7.47883 17.1485H15.7693C16.2405 17.1485 16.6923 16.9613 17.0255 16.6282C17.3587 16.295 17.5458 15.8431 17.5458 15.372V8.85802H5.7023V15.372Z" fill="#670BAF"/>
</svg>
