<svg width="23" height="24" viewBox="0 0 23 24" fill="none" xmlns="http://www.w3.org/2000/svg">
<path fill-rule="evenodd" clip-rule="evenodd" d="M19.7236 16.4656L19.7249 16.4673C19.9447 16.7544 20.0503 17.7077 18.54 17.5384C18.0954 17.4886 17.4738 17.4006 16.7267 17.1174C16.2237 16.9267 15.7856 16.6873 15.4251 16.4534C14.8321 16.6921 14.1927 16.8388 13.525 16.8762C12.6122 18.0974 11.155 18.8879 9.51315 18.8879C8.97358 18.8879 8.45291 18.8023 7.96464 18.6436C7.67128 18.8139 7.33772 18.9797 6.96902 19.1195C6.22197 19.4028 5.60196 19.5083 5.15577 19.5405C4.82166 19.5646 4.58671 19.5475 4.47049 19.534C4.21578 19.5045 3.98693 19.3593 3.88856 19.1146C3.80226 18.8998 3.83348 18.6556 3.97092 18.4693C4.13954 18.2394 4.29453 17.9985 4.44105 17.7541C4.72676 17.2774 5.00695 16.7634 5.07786 16.2043C4.71368 15.5098 4.50781 14.7194 4.50781 13.8825C4.50781 11.8843 5.67876 10.1595 7.37192 9.35702C8.04587 6.77693 10.3924 4.87292 13.1837 4.87292C16.501 4.87292 19.1901 7.56209 19.1901 10.8793C19.1901 11.796 18.9843 12.6664 18.6159 13.4453C18.4889 14.5958 19.0671 15.5646 19.7236 16.4656ZM8.51208 10.8793C8.51208 8.29926 10.6036 6.20768 13.1837 6.20768C15.7638 6.20768 17.8554 8.29926 17.8554 10.8793C17.8554 11.6267 17.6804 12.3313 17.3697 12.9561C17.3376 13.0206 17.3162 13.09 17.3063 13.1614C17.1602 14.2124 17.4068 15.1706 17.9102 16.0904C17.1815 15.9148 16.4947 15.5931 15.8881 15.1529C15.6895 15.0087 15.4278 14.9853 15.2067 15.0916C14.5954 15.3858 13.9098 15.551 13.1837 15.551C10.6036 15.551 8.51208 13.4594 8.51208 10.8793ZM7.17967 11.049C7.25666 13.8244 9.21635 16.1292 11.8272 16.7319C11.1958 17.2454 10.3904 17.5531 9.51315 17.5531C9.02642 17.5531 8.56339 17.4588 8.14015 17.2879C7.93911 17.2068 7.71117 17.2283 7.52892 17.3457C7.23603 17.5344 6.88778 17.7228 6.49579 17.8715C6.23559 17.9701 5.99781 18.0414 5.78547 18.0926C6.00726 17.6874 6.23186 17.2047 6.33538 16.7503C6.38649 16.526 6.41464 16.3077 6.42735 16.1026C6.43551 15.971 6.40444 15.8398 6.33806 15.7257C6.02314 15.1846 5.84257 14.5557 5.84257 13.8825C5.84257 12.7416 6.36312 11.7222 7.17967 11.049Z" fill="#670BAF"/>
</svg>
