<svg width="20" height="34" viewBox="0 0 20 34" fill="none" xmlns="http://www.w3.org/2000/svg">
<path d="M19.1118 0.892232C19.3933 1.17322 19.6167 1.50698 19.7691 1.87441C19.9215 2.24183 20 2.63571 20 3.0335C20 3.43128 19.9215 3.82516 19.7691 4.19259C19.6167 4.56002 19.3933 4.89378 19.1118 5.17476L7.32721 16.9593L19.1118 28.7439C19.6797 29.3118 19.9987 30.082 19.9987 30.8851C19.9987 31.6883 19.6797 32.4585 19.1118 33.0264C18.5439 33.5943 17.7736 33.9134 16.9705 33.9134C16.1674 33.9134 15.3971 33.5943 14.8292 33.0264L0.888226 19.0854C0.606661 18.8044 0.383278 18.4707 0.230864 18.1032C0.0784495 17.7358 0 17.3419 0 16.9441C0 16.5464 0.0784495 16.1525 0.230864 15.785C0.383278 15.4176 0.606661 15.0839 0.888226 14.8029L14.8292 0.861858C15.9834 -0.292299 17.9272 -0.292299 19.1118 0.892232Z" fill="#D9D9D9"/>
</svg>
