<svg xmlns="http://www.w3.org/2000/svg" viewBox="0 0 451.03 98.12"><defs><style>.cls-1{fill:#0070b3;}.cls-2{fill:#00b4f1;}</style></defs><title>Asset 1</title><g id="Layer_2" data-name="Layer 2"><g id="Layer_2-2" data-name="Layer 2"><path class="cls-1" d="M148.53,31.54,138.83,57c-.72,2-1.36,4.77-1.36,4.77h-.16S136.67,59,136,57l-9.7-25.42c-1.36-3.64-2.56-4.45-6.41-4.45h-6.66v4.77h5.22a2.54,2.54,0,0,1,2.8,1.87s11.62,30,12,31c1.47,4.1,6.72,4.26,8.17.43.51-1.36,12.09-31.39,12.09-31.39a2.49,2.49,0,0,1,2.8-1.87h5.41V27.09h-6.77C151.09,27.09,149.89,27.9,148.53,31.54Z"/><path class="cls-1" d="M181.76,61.24V32c0-3.48-1.46-4.93-4.94-4.93h-8.25v4.77h5.9a1.62,1.62,0,0,1,1.78,1.78V62.87c0,3.48,1.46,4.93,4.94,4.93h7.51V63h-5.16A1.59,1.59,0,0,1,181.76,61.24Z"/><path class="cls-1" d="M214.27,36.25h-.17a9.57,9.57,0,0,0,.06-1.8V31.7c0-3.24-1.54-4.61-4.94-4.61h-8.05v4.77H207a1.61,1.61,0,0,1,1.77,1.78v23h0v4.59A1.58,1.58,0,0,1,207,63H201.2v4.78h8.09c3.49,0,4.94-1.46,4.94-4.94V50.64a26.82,26.82,0,0,1,1.13-7.93c1.79-6,6.08-10.76,11.82-10.76a8.82,8.82,0,0,0,1.41-.07V27A13.54,13.54,0,0,0,227,27,13,13,0,0,0,214.27,36.25Z"/><path class="cls-1" d="M268.92,31.54,259,57a37.34,37.34,0,0,0-1.36,4.37h-.17S256.81,59,256,57L245.68,31.54c-1.45-3.64-2.57-4.45-6.17-4.45h-7v4.77h5.27a2.6,2.6,0,0,1,2.81,1.87l14.18,33.91-2.4,5.59c-1.53,3.72-3.93,6.63-7.45,6.63H233.29v4.89l11.82,0c5.37,0,9.46-3.31,11.54-8.5l17.4-42.57a2.53,2.53,0,0,1,2.8-1.87h5.39V27.09h-7.07C271.48,27.09,270.28,27.9,268.92,31.54Z"/><path class="cls-1" d="M319.22,63a1.59,1.59,0,0,1-1.78-1.79V41.74c0-8.74-3.08-14.88-15.95-14.88h-9.42v4.51l9.34.11c7.45,0,10.52,2.25,10.52,10.74v.49h-2.26c-7,0-24.93.48-24.93,14,0,8.1,7,12.06,13.84,12.06A14.37,14.37,0,0,0,312.09,60h.17s-.08,1.22-.08,3c0,3.31,1.37,4.85,4.85,4.85h7.67V63Zm-7.29-14.09c0,7.05-4.69,15.14-12.46,15.14-6.07,0-9.07-3.89-9.07-7.69,0-9.15,12.79-9.31,19.19-9.31h2.34Z"/><path class="cls-1" d="M178,22.31a4.5,4.5,0,1,0-4.5-4.5A4.51,4.51,0,0,0,178,22.31Z"/><path class="cls-2" d="M56.05,26.84l-4.94,10c-.54,1.06-1,1.44-1.4,1.62v8.43a.53.53,0,0,1-.5.55h-.29a.52.52,0,0,1-.49-.55V38.44c-.44-.18-.88-.56-1.41-1.62l-4.94-10a.93.93,0,0,1-.1-.38c0-.25.16-.41.47-.42h.29a.64.64,0,0,1,.48.34l4.92,10c.41.83.57,1,.92,1s.53-.15.93-1l4.92-10a.64.64,0,0,1,.48-.34h.28c.32,0,.49.17.48.42A.93.93,0,0,1,56.05,26.84Z"/><path class="cls-2" d="M55.29,13.81l-4.45,9c-.48.95-.87,1.3-1.26,1.45v7.59a.47.47,0,0,1-.45.5h-.26a.47.47,0,0,1-.45-.5V24.26c-.39-.16-.78-.51-1.26-1.46l-4.45-9a.9.9,0,0,1-.09-.34c0-.23.15-.37.43-.38h.26a.53.53,0,0,1,.43.3l4.43,9c.36.75.52.88.83.88s.47-.14.83-.88l4.43-9a.54.54,0,0,1,.43-.3H55c.29,0,.44.15.43.38A.82.82,0,0,1,55.29,13.81Z"/><path class="cls-2" d="M54.66.66l-4,8.08c-.43.86-.79,1.17-1.14,1.31v6.83a.42.42,0,0,1-.4.45h-.24a.43.43,0,0,1-.4-.45V10.05c-.35-.14-.7-.45-1.13-1.31l-4-8.08a.94.94,0,0,1-.08-.31c0-.21.13-.33.39-.34h.23a.53.53,0,0,1,.39.27l4,8.11c.33.67.47.8.75.8s.42-.13.75-.8l4-8.11A.53.53,0,0,1,54.12,0h.24c.25,0,.39.13.39.34A1,1,0,0,1,54.66.66Z"/><path class="cls-2" d="M39.37,14.35l-.24,10a2.66,2.66,0,0,1-.53,1.86l3.21,6.88a.47.47,0,0,1-.19.63l-.25.11a.47.47,0,0,1-.61-.26l-3.2-6.88a2.57,2.57,0,0,1-1.76-.78L28,19.67a1.22,1.22,0,0,1-.23-.27c-.1-.21,0-.39.23-.53l.24-.12a.56.56,0,0,1,.51.09l7.82,6.3c.65.53.84.58,1.13.45s.37-.32.38-1.16l.2-10a.54.54,0,0,1,.27-.45l.23-.11c.27-.11.47-.05.56.17A.94.94,0,0,1,39.37,14.35Z"/><path class="cls-2" d="M33,2.57l-.21,9a2.47,2.47,0,0,1-.47,1.67l2.87,6.19A.4.4,0,0,1,35,20l-.21.1a.42.42,0,0,1-.55-.24l-2.89-6.19a2.37,2.37,0,0,1-1.58-.7l-7-5.64a.68.68,0,0,1-.2-.24c-.1-.19,0-.35.2-.48l.21-.1a.51.51,0,0,1,.47.08l7,5.67c.58.47.76.53,1,.4s.33-.29.35-1l.18-9a.53.53,0,0,1,.23-.41l.22-.09c.24-.1.41,0,.5.15A.8.8,0,0,1,33,2.57Z"/><path class="cls-2" d="M36.19,29.82,40.91,39.9A3,3,0,0,1,41.3,42l6.59,5.26A.51.51,0,0,1,48,48l-.18.23a.53.53,0,0,1-.74,0L40.5,43a2.91,2.91,0,0,1-2.14.09L27.47,40.74a1,1,0,0,1-.35-.16c-.21-.15-.22-.38,0-.64l.17-.23a.63.63,0,0,1,.56-.16L38.71,42c.9.19,1.13.16,1.35-.11s.2-.51-.2-1.34L35.11,30.41a.62.62,0,0,1,0-.58l.19-.22c.21-.24.43-.28.63-.11A1,1,0,0,1,36.19,29.82Z"/><path class="cls-2" d="M25.33,22l4.25,9.08A2.6,2.6,0,0,1,29.93,33l5.93,4.73a.47.47,0,0,1,.11.66l-.16.2a.47.47,0,0,1-.67,0l-5.93-4.74a2.64,2.64,0,0,1-1.93.08l-9.79-2.12a1.54,1.54,0,0,1-.33-.14c-.18-.14-.19-.35,0-.57l.15-.22a.55.55,0,0,1,.5-.14L27.6,33c.81.18,1,.15,1.21-.1s.18-.44-.17-1.2l-4.29-9.08a.59.59,0,0,1,0-.52l.17-.2c.19-.22.39-.25.57-.1A.9.9,0,0,1,25.33,22Z"/><path class="cls-2" d="M14.47,14.09l3.82,8.17A2.39,2.39,0,0,1,18.61,24L24,28.23a.42.42,0,0,1,.09.59L23.9,29a.42.42,0,0,1-.6,0L18,24.78a2.34,2.34,0,0,1-1.73.07L7.41,22.94a1.41,1.41,0,0,1-.29-.12c-.17-.13-.18-.31,0-.52l.14-.19A.56.56,0,0,1,7.69,22l8.82,2c.73.16.91.13,1.09-.1s.16-.4-.16-1.07l-3.85-8.17a.51.51,0,0,1,0-.47l.15-.18c.17-.2.35-.23.52-.1A1.27,1.27,0,0,1,14.47,14.09Z"/><path class="cls-2" d="M16.24,34.68l7.68,6.44a2.68,2.68,0,0,1,1.13,1.57l7.37,1.78a.47.47,0,0,1,.38.55l-.07.26a.46.46,0,0,1-.58.31l-7.38-1.78a2.62,2.62,0,0,1-1.71.88l-9.78,2.22a1,1,0,0,1-.34,0c-.23-.05-.33-.22-.28-.51l.06-.26a.54.54,0,0,1,.39-.34l9.8-2.19c.81-.18,1-.29,1.06-.6s0-.49-.68-1l-7.71-6.42a.57.57,0,0,1-.19-.48l.07-.25c.08-.28.25-.4.47-.34A1.08,1.08,0,0,1,16.24,34.68Z"/><path class="cls-2" d="M3.23,32l6.92,5.8a2.43,2.43,0,0,1,1,1.41l6.63,1.61a.41.41,0,0,1,.34.49l-.05.23a.42.42,0,0,1-.53.28l-6.64-1.6a2.36,2.36,0,0,1-1.54.8L.58,43a.7.7,0,0,1-.32,0c-.21,0-.3-.21-.25-.46l0-.23A.5.5,0,0,1,.42,42l8.82-2c.72-.16.88-.27.95-.54s0-.44-.61-.91L2.64,32.8a.49.49,0,0,1-.17-.44l.06-.23c.07-.25.22-.35.43-.29A.78.78,0,0,1,3.23,32Z"/><path class="cls-2" d="M26.13,47.19,37,49.79a2.89,2.89,0,0,1,1.88,1l8.23-1.88a.53.53,0,0,1,.65.36l.06.29a.52.52,0,0,1-.42.6l-8.23,1.87c-.07.47-.35,1-1.26,1.73l-8.64,7a1.08,1.08,0,0,1-.34.19c-.25.06-.44-.07-.52-.38l-.07-.28a.6.6,0,0,1,.22-.54l8.67-7c.71-.58.83-.78.75-1.12s-.27-.47-1.17-.69L25.92,48.41a.57.57,0,0,1-.43-.39l-.06-.28c-.06-.31.05-.51.31-.56A1,1,0,0,1,26.13,47.19Z"/><path class="cls-2" d="M13.53,51.06l9.74,2.34a2.68,2.68,0,0,1,1.7.91l7.4-1.69A.48.48,0,0,1,33,53l0,.26a.46.46,0,0,1-.37.54l-7.41,1.69c-.06.42-.32.87-1.14,1.55l-7.76,6.33a1,1,0,0,1-.32.17c-.22.06-.39-.06-.46-.34l-.07-.25a.55.55,0,0,1,.2-.48l7.8-6.32c.64-.53.75-.7.68-1s-.24-.43-1.05-.62l-9.77-2.31a.55.55,0,0,1-.39-.35l0-.26c-.06-.28,0-.46.27-.5A.84.84,0,0,1,13.53,51.06Z"/><path class="cls-2" d="M.77,54.8l8.77,2.11a2.4,2.4,0,0,1,1.54.82l6.66-1.52a.42.42,0,0,1,.52.29l0,.23a.42.42,0,0,1-.35.49l-6.65,1.52c-.06.38-.29.79-1,1.4l-7,5.7A.86.86,0,0,1,3,66c-.2.06-.35,0-.42-.3l-.06-.23A.54.54,0,0,1,2.71,65l7-5.68c.58-.48.67-.64.61-.91s-.22-.38-.95-.55L.6,55.8c-.15,0-.32-.18-.34-.32l-.05-.24c0-.25.05-.41.25-.45A.83.83,0,0,1,.77,54.8Z"/><path class="cls-2" d="M17.53,66.18l9.82-2a2.59,2.59,0,0,1,1.93.11l6-4.66a.48.48,0,0,1,.67,0l.16.21a.47.47,0,0,1-.12.66l-6,4.65a2.59,2.59,0,0,1-.37,1.89l-4.37,9a.82.82,0,0,1-.21.28c-.18.15-.38.11-.56-.11l-.17-.2a.53.53,0,0,1,0-.52l4.4-9c.36-.75.38-1,.19-1.21s-.4-.28-1.22-.11l-9.83,2a.58.58,0,0,1-.5-.15l-.15-.21c-.17-.24-.15-.44,0-.58A.81.81,0,0,1,17.53,66.18Z"/><path class="cls-2" d="M7.34,75l8.84-1.79a2.5,2.5,0,0,1,1.74.09l5.39-4.18a.43.43,0,0,1,.6,0l.14.19a.42.42,0,0,1-.1.59l-5.4,4.19a2.34,2.34,0,0,1-.33,1.7l-3.93,8.12a.94.94,0,0,1-.19.25c-.17.14-.34.1-.51-.1l-.15-.18a.48.48,0,0,1,0-.47l4-8.12c.33-.67.35-.86.17-1.08s-.36-.26-1.09-.1L7.61,76a.5.5,0,0,1-.45-.15L7,75.62c-.15-.21-.14-.39,0-.52A.71.71,0,0,1,7.34,75Z"/><path class="cls-2" d="M33.44,65.9l8.79-6.85a2.94,2.94,0,0,1,2-.84l3.66-7.6a.51.51,0,0,1,.68-.28l.27.13a.53.53,0,0,1,.21.71l-3.67,7.59a2.94,2.94,0,0,1,.56,2.07L46,72a.92.92,0,0,1-.07.38c-.1.24-.32.3-.62.18l-.26-.13a.62.62,0,0,1-.29-.5l-.08-11.15c0-.93-.09-1.14-.41-1.29s-.53-.09-1.26.48l-8.77,6.88a.62.62,0,0,1-.58.1l-.25-.14c-.29-.15-.37-.36-.25-.59A1,1,0,0,1,33.44,65.9Z"/><path class="cls-2" d="M28.18,78.1l7.91-6.16a2.72,2.72,0,0,1,1.77-.76l3.3-6.84a.47.47,0,0,1,.61-.25l.24.12a.48.48,0,0,1,.19.64l-3.3,6.83a2.71,2.71,0,0,1,.51,1.86l.1,10a.78.78,0,0,1-.07.34c-.08.22-.28.27-.55.16L38.65,84a.56.56,0,0,1-.25-.46l-.08-10c0-.84-.08-1-.37-1.17s-.48-.07-1.13.45l-7.9,6.19a.56.56,0,0,1-.51.08l-.23-.12c-.26-.14-.34-.32-.23-.54A.85.85,0,0,1,28.18,78.1Z"/><path class="cls-2" d="M22.76,90.36l7.13-5.55a2.35,2.35,0,0,1,1.59-.68l3-6.16a.42.42,0,0,1,.55-.22l.21.1a.42.42,0,0,1,.17.58l-3,6.14a2.47,2.47,0,0,1,.45,1.68l.09,9a.8.8,0,0,1-.05.31c-.08.2-.26.24-.5.15l-.22-.1a.53.53,0,0,1-.23-.41l-.06-9c0-.75-.08-.92-.34-1s-.43-.07-1,.39l-7.11,5.58a.53.53,0,0,1-.47.07l-.21-.11c-.22-.12-.3-.29-.2-.48A1,1,0,0,1,22.76,90.36Z"/><path class="cls-2" d="M42.83,84.15l4.56-8.92c.49-1,.89-1.29,1.28-1.45l.1-7.59a.48.48,0,0,1,.45-.49h.27a.46.46,0,0,1,.43.5l-.09,7.59c.39.16.78.51,1.24,1.47l4.33,9a.9.9,0,0,1,.09.34c0,.23-.15.37-.43.37H54.8a.57.57,0,0,1-.43-.3l-4.31-9.07c-.35-.75-.51-.89-.83-.9s-.46.13-.83.88l-4.55,9a.57.57,0,0,1-.43.29h-.26c-.29,0-.44-.15-.43-.39A.91.91,0,0,1,42.83,84.15Z"/><path class="cls-2" d="M43.27,97.32l4.12-8c.44-.86.79-1.16,1.15-1.31l.09-6.82a.42.42,0,0,1,.4-.44h.24a.41.41,0,0,1,.39.45L49.58,88c.35.14.69.46,1.12,1.32l3.89,8.13a1.4,1.4,0,0,1,.09.31c0,.21-.14.33-.4.34H54a.53.53,0,0,1-.38-.28l-3.88-8.16c-.32-.68-.46-.81-.73-.81s-.43.12-.77.79l-4.08,8a.48.48,0,0,1-.39.27h-.24c-.26,0-.39-.14-.38-.35A.84.84,0,0,1,43.27,97.32Z"/><path class="cls-2" d="M52.62,71.85l.13-11.14a2.85,2.85,0,0,1,.57-2.06L49.66,51a.53.53,0,0,1,.21-.71l.26-.12a.53.53,0,0,1,.69.28l3.65,7.6a2.86,2.86,0,0,1,2,.85l8.78,6.85a.92.92,0,0,1,.25.3c.12.23,0,.44-.25.58L65,66.8a.59.59,0,0,1-.58-.09l-8.77-6.89c-.72-.57-.94-.64-1.26-.48s-.4.36-.41,1.29l-.09,11.15a.6.6,0,0,1-.28.5l-.27.12c-.29.13-.51.07-.61-.17A1.08,1.08,0,0,1,52.62,71.85Z"/><path class="cls-2" d="M59.25,83.4l.12-10a2.65,2.65,0,0,1,.51-1.86l-3.3-6.84a.48.48,0,0,1,.19-.64l.24-.11a.45.45,0,0,1,.61.25L60.91,71a2.69,2.69,0,0,1,1.77.76l7.91,6.17a.84.84,0,0,1,.22.27c.11.2,0,.39-.22.53l-.23.12a.56.56,0,0,1-.52-.09L62,72.58c-.66-.52-.85-.58-1.14-.44s-.36.32-.36,1.16l-.09,10a.56.56,0,0,1-.25.46l-.24.1c-.27.12-.46.06-.56-.15A1,1,0,0,1,59.25,83.4Z"/><path class="cls-2" d="M65.78,95.11l.11-9a2.4,2.4,0,0,1,.45-1.68l-3-6.15a.44.44,0,0,1,.17-.58l.21-.1a.42.42,0,0,1,.56.23l3,6.15a2.38,2.38,0,0,1,1.59.69L76,90.21a.72.72,0,0,1,.21.23c.1.19,0,.36-.2.48l-.21.11a.49.49,0,0,1-.46-.08l-7.11-5.58c-.59-.46-.76-.52-1-.39s-.31.29-.32,1l-.07,9a.57.57,0,0,1-.23.42l-.23.09c-.23.1-.41,0-.49-.14A.81.81,0,0,1,65.78,95.11Z"/><path class="cls-2" d="M73,76.13,68.83,67a2.59,2.59,0,0,1-.33-1.9l-5.87-4.8a.48.48,0,0,1-.11-.66l.17-.21a.47.47,0,0,1,.67,0l5.87,4.81a2.67,2.67,0,0,1,1.92,0l9.77,2.25a1,1,0,0,1,.32.14c.19.15.2.34,0,.58l-.15.2a.57.57,0,0,1-.51.15l-9.77-2.29c-.81-.19-1-.16-1.22.09s-.18.44.16,1.2l4.17,9.13a.58.58,0,0,1,0,.52l-.17.2c-.19.22-.4.25-.57.09A1,1,0,0,1,73,76.13Z"/><path class="cls-2" d="M83.72,84.21,80,76a2.41,2.41,0,0,1-.3-1.71l-5.27-4.34a.41.41,0,0,1-.09-.59l.15-.18a.41.41,0,0,1,.59,0l5.29,4.32a2.37,2.37,0,0,1,1.73,0l8.79,2a.66.66,0,0,1,.29.13c.16.13.18.31,0,.52l-.14.19a.52.52,0,0,1-.46.12l-8.8-2.06c-.72-.17-.91-.14-1.08.08s-.18.4.14,1.08l3.75,8.22a.54.54,0,0,1,0,.47l-.16.18c-.17.2-.35.22-.51.08A.77.77,0,0,1,83.72,84.21Z"/><path class="cls-2" d="M69.23,60.56l-8.62-7.05c-.91-.75-1.19-1.27-1.26-1.72L51.13,49.9a.51.51,0,0,1-.43-.6l.07-.29a.52.52,0,0,1,.64-.36l8.22,1.89a2.91,2.91,0,0,1,1.89-1l10.84-2.6a1.31,1.31,0,0,1,.39,0c.25,0,.36.25.3.57l-.06.28a.61.61,0,0,1-.43.39L61.7,50.71c-.89.22-1.08.35-1.16.69s0,.54.76,1.13l8.65,7a.6.6,0,0,1,.22.54l-.07.28c-.08.31-.27.44-.52.38A1,1,0,0,1,69.23,60.56Z"/><path class="cls-2" d="M82.18,63l-7.77-6.34c-.82-.68-1.07-1.14-1.13-1.56l-7.41-1.69a.47.47,0,0,1-.38-.54l.06-.26a.47.47,0,0,1,.58-.32l7.4,1.69a2.63,2.63,0,0,1,1.7-.91L85,50.69a1.06,1.06,0,0,1,.35,0c.23,0,.33.22.28.5l0,.26a.58.58,0,0,1-.39.35L75.4,54.1c-.82.19-1,.3-1.05.61s0,.49.68,1l7.79,6.33a.55.55,0,0,1,.19.48l-.06.25c-.08.28-.24.4-.47.34A.85.85,0,0,1,82.18,63Z"/><path class="cls-2" d="M95.21,65.49l-7-5.71c-.74-.61-1-1-1-1.4l-6.66-1.53a.43.43,0,0,1-.35-.49l.06-.23a.41.41,0,0,1,.52-.29l6.66,1.52A2.37,2.37,0,0,1,89,56.55l8.77-2.1a1.2,1.2,0,0,1,.32,0c.21,0,.29.2.25.45l0,.23a.49.49,0,0,1-.35.32l-8.79,2.07c-.73.17-.88.28-1,.56s0,.43.61.9l7,5.7a.51.51,0,0,1,.18.43l-.06.23c-.08.25-.23.36-.43.3A.78.78,0,0,1,95.21,65.49Z"/><path class="cls-2" d="M85,47.13l-9.72-2.47a2.67,2.67,0,0,1-1.69-.93l-7.42,1.59a.5.5,0,0,1-.59-.33l0-.26a.48.48,0,0,1,.39-.54l7.42-1.59c.07-.41.34-.87,1.16-1.53l7.85-6.24a1.31,1.31,0,0,1,.31-.16c.24-.06.4.06.47.34l.07.25a.58.58,0,0,1-.21.49L75.12,42c-.65.51-.76.7-.7,1s.24.42,1,.62L85.21,46a.59.59,0,0,1,.38.36l0,.25c0,.29-.06.46-.29.5A.79.79,0,0,1,85,47.13Z"/><path class="cls-2" d="M97.8,43.56l-8.74-2.22a2.49,2.49,0,0,1-1.53-.84l-6.67,1.43a.42.42,0,0,1-.52-.3l-.06-.23a.42.42,0,0,1,.36-.48l6.68-1.43c.06-.38.29-.79,1-1.39l7.07-5.61a.83.83,0,0,1,.27-.15c.21,0,.36.06.42.32l.06.22a.48.48,0,0,1-.19.43l-7.09,5.6c-.58.46-.68.62-.62.9s.21.38.94.57L98,42.57a.48.48,0,0,1,.34.32l.05.23c0,.26-.05.42-.26.45A.66.66,0,0,1,97.8,43.56Z"/><path class="cls-2" d="M70.77,40.54,59.88,42.89a2.91,2.91,0,0,1-2.13-.1L51.15,48a.52.52,0,0,1-.74,0l-.18-.24a.51.51,0,0,1,.12-.73l6.59-5.25a2.94,2.94,0,0,1,.4-2.1L62.07,29.6a1,1,0,0,1,.23-.31c.2-.17.42-.13.63.11l.18.23a.59.59,0,0,1,0,.58L58.38,40.28c-.39.84-.41,1.07-.19,1.34s.45.31,1.35.11l10.89-2.38a.59.59,0,0,1,.56.17l.17.23c.19.25.18.47,0,.63A.94.94,0,0,1,70.77,40.54Z"/><path class="cls-2" d="M80.69,31.57l-9.8,2.11A2.59,2.59,0,0,1,69,33.6L63,38.33a.46.46,0,0,1-.66,0l-.16-.21a.46.46,0,0,1,.11-.65l5.93-4.73a2.63,2.63,0,0,1,.36-1.89l4.26-9.08a1,1,0,0,1,.2-.28c.18-.15.38-.12.56.1l.18.2a.56.56,0,0,1,0,.52l-4.29,9.08c-.36.75-.37.95-.17,1.2s.39.28,1.21.1l9.81-2.15a.56.56,0,0,1,.49.15l.16.21c.17.24.16.43,0,.58A1.1,1.1,0,0,1,80.69,31.57Z"/><path class="cls-2" d="M90.78,22.66,82,24.55a2.31,2.31,0,0,1-1.74-.07l-5.34,4.26a.42.42,0,0,1-.6,0l-.14-.18a.41.41,0,0,1,.09-.59l5.35-4.26a2.3,2.3,0,0,1,.31-1.7l3.84-8.17a1,1,0,0,1,.18-.25c.16-.14.35-.11.51.09l.16.17a.55.55,0,0,1,0,.47l-3.86,8.17c-.32.68-.33.86-.15,1.09s.35.25,1.08.09l8.82-1.94a.58.58,0,0,1,.46.13l.14.2c.15.2.14.39,0,.51A.79.79,0,0,1,90.78,22.66Z"/><path class="cls-2" d="M70.52,19.88l-8,6.05a2.65,2.65,0,0,1-1.78.74l-3.39,6.8a.48.48,0,0,1-.61.25l-.24-.13a.48.48,0,0,1-.18-.64l3.39-6.79a2.64,2.64,0,0,1-.48-1.87l0-10a.75.75,0,0,1,.07-.34c.1-.22.29-.28.55-.15l.24.1a.6.6,0,0,1,.26.46l-.07,10c0,.83.08,1,.36,1.17s.48.08,1.14-.42l8-6.1A.56.56,0,0,1,70.3,19l.24.12a.37.37,0,0,1,.21.54A1,1,0,0,1,70.52,19.88Z"/><path class="cls-2" d="M76.08,7.68,68.9,13.13a2.44,2.44,0,0,1-1.61.68l-3,6.1a.42.42,0,0,1-.56.22l-.22-.1a.43.43,0,0,1-.15-.57l3.05-6.12a2.37,2.37,0,0,1-.44-1.68l0-9A1,1,0,0,1,66,2.33c.09-.19.26-.24.51-.13l.21.09a.48.48,0,0,1,.22.42l0,9c0,.75.07.92.32,1s.43.07,1-.38l7.19-5.48a.46.46,0,0,1,.46-.07L76.1,7c.23.12.29.29.19.48A.55.55,0,0,1,76.08,7.68Z"/><path class="cls-2" d="M341.54,45.18a.32.32,0,0,0-.36-.34h-.67v-.91h1.12c.67,0,1,.27,1,.88v.52a4.32,4.32,0,0,1,0,.59h0a2.7,2.7,0,0,1,2.54-2.06,2.61,2.61,0,0,1,.43,0v1a2.9,2.9,0,0,0-.4,0,2.53,2.53,0,0,0-2.33,2,5,5,0,0,0-.23,1.51v3.25h-1.08Z"/><path class="cls-2" d="M351,43.75a3.28,3.28,0,0,1,3.37,3.57c0,.18,0,.52,0,.52h-6.17a3,3,0,0,0,3.12,3.07,3.64,3.64,0,0,0,2.41-.95l.53.78a4.65,4.65,0,0,1-3,1.11,4,4,0,0,1-4.2-4A3.85,3.85,0,0,1,351,43.75ZM353.26,47A2.23,2.23,0,0,0,351,44.63,2.73,2.73,0,0,0,348.23,47Z"/><path class="cls-2" d="M361.52,46.9H362v-.09c0-1.61-.61-2.18-2.08-2.18-.39,0-1.56.1-1.56.67v.49h-1v-.73c0-1.08,1.92-1.31,2.62-1.31,2.54,0,3.15,1.31,3.15,3v3.7a.31.31,0,0,0,.35.34h.67v.9H363c-.69,0-1-.29-1-.92,0-.34,0-.57,0-.57h0a2.81,2.81,0,0,1-2.66,1.68c-1.35,0-2.74-.75-2.74-2.29C356.6,47,360.13,46.9,361.52,46.9Zm-2,4.06A2.73,2.73,0,0,0,362,48.08v-.35h-.46c-1.26,0-3.79,0-3.79,1.77C357.72,50.22,358.31,51,359.51,51Z"/><path class="cls-2" d="M366.56,42.11a.31.31,0,0,0-.35-.34h-.67v-.91h1.13c.69,0,1,.28,1,.94v2.8a5,5,0,0,1,0,.63h0a2.91,2.91,0,0,1,2.73-1.48c2.15,0,3.5,1.66,3.5,4.06s-1.52,4-3.63,4a2.94,2.94,0,0,1-2.64-1.49h0a6.08,6.08,0,0,1,0,.63v.67h-1.05Zm3.61,8.82c1.42,0,2.59-1.16,2.59-3.12s-1.06-3.11-2.54-3.11-2.61.93-2.61,3.12C367.61,49.37,368.44,50.93,370.17,50.93Z"/><path class="cls-2" d="M376.82,45.18a.31.31,0,0,0-.35-.34h-.68v-.91h1.14c.69,0,1,.28,1,.94v5.55a.31.31,0,0,0,.35.34h.68v.9h-1.14c-.68,0-1-.27-1-.93Zm0-4.32h1v1.32h-1Z"/><path class="cls-2" d="M381.53,42.11a.31.31,0,0,0-.35-.34h-.67v-.91h1.13c.69,0,1,.28,1,.94v8.62a.31.31,0,0,0,.35.34h.67v.9h-1.13c-.69,0-1-.27-1-.93Z"/><path class="cls-2" d="M386.34,45.18a.31.31,0,0,0-.35-.34h-.67v-.91h1.13c.69,0,1,.28,1,.94v5.55a.31.31,0,0,0,.35.34h.67v.9h-1.14c-.68,0-1-.27-1-.93Zm0-4.32h1.05v1.32h-1.05Z"/><path class="cls-2" d="M391.16,44.81h-1.05v-.88h1.07V41.8h1.07v2.13h2v.88h-2v3.93c0,1.82,1.2,2,1.81,2a1.89,1.89,0,0,0,.36,0v.93a2.46,2.46,0,0,1-.46,0,2.57,2.57,0,0,1-2.8-2.88Z"/><path class="cls-2" d="M401.28,46.9h.45v-.09c0-1.61-.61-2.18-2.08-2.18-.4,0-1.57.1-1.57.67v.49h-1v-.73c0-1.08,1.91-1.31,2.62-1.31,2.53,0,3.14,1.31,3.14,3v3.7a.31.31,0,0,0,.35.34h.68v.9h-1.11c-.68,0-1-.29-1-.92,0-.34,0-.57,0-.57h0a2.85,2.85,0,0,1-2.67,1.68,2.46,2.46,0,0,1-2.73-2.29C396.36,47,399.89,46.9,401.28,46.9Zm-2,4.06a2.73,2.73,0,0,0,2.46-2.88v-.35h-.47c-1.26,0-3.78,0-3.78,1.77C397.48,50.22,398.07,51,399.27,51Z"/><path class="cls-2" d="M409.84,43.75c.91,0,2.86.37,2.86,1.64v.7h-1v-.45c0-.64-1.16-1-1.84-1a3.11,3.11,0,1,0,0,6.21,3.58,3.58,0,0,0,2.58-1.1l.52.79a4.44,4.44,0,0,1-3.18,1.26l-.13.66a1.14,1.14,0,0,1,1.12,1.09c0,.89-.75,1.21-1.54,1.21a4.39,4.39,0,0,1-.8-.07V54a2.69,2.69,0,0,0,.67.09c.42,0,.82-.11.82-.52s-.35-.52-.91-.52h-.24l.3-1.27a3.91,3.91,0,0,1-3.48-4A4,4,0,0,1,409.84,43.75Z"/><path class="cls-2" d="M419.77,46.9h.44v-.09c0-1.61-.6-2.18-2.07-2.18-.4,0-1.57.1-1.57.67v.49h-1v-.73c0-1.08,1.92-1.31,2.62-1.31,2.54,0,3.15,1.31,3.15,3v3.7a.31.31,0,0,0,.35.34h.67v.9h-1.1c-.69,0-1-.29-1-.92,0-.34,0-.57,0-.57h0a2.85,2.85,0,0,1-2.67,1.68,2.46,2.46,0,0,1-2.73-2.29C414.85,47,418.38,46.9,419.77,46.9Zm-2.45-6c1.07,0,1.3,1.1,2,1.1.52,0,.64-.66.64-1.06h.84c0,1.19-.51,1.8-1.48,1.8s-1.3-1.09-2-1.09c-.53,0-.64.65-.64,1h-.83C415.84,41.46,416.33,40.85,417.32,40.85ZM417.75,51a2.73,2.73,0,0,0,2.46-2.88v-.35h-.46c-1.26,0-3.78,0-3.78,1.77A1.57,1.57,0,0,0,417.75,51Z"/><path class="cls-2" d="M428.33,43.75a4.05,4.05,0,1,1-4.23,4A4.09,4.09,0,0,1,428.33,43.75Zm0,7.16a3.1,3.1,0,0,0,3.11-3.15,3.12,3.12,0,0,0-6.24,0A3.1,3.1,0,0,0,428.35,50.91Z"/><path class="cls-2" d="M345.22,59.8a3.29,3.29,0,0,1,3.37,3.57c0,.18,0,.52,0,.52h-6.17A3,3,0,0,0,345.51,67a3.64,3.64,0,0,0,2.41-.95l.53.79a4.68,4.68,0,0,1-3,1.1,4,4,0,0,1-4.2-4A3.85,3.85,0,0,1,345.22,59.8Zm2.25,3.26a2.23,2.23,0,0,0-2.27-2.38,2.73,2.73,0,0,0-2.76,2.38Z"/><path class="cls-2" d="M355.11,60.86h-1.06V60h1.07V57.85h1.07V60h2v.87h-2V64.8c0,1.81,1.2,2,1.81,2a2.08,2.08,0,0,0,.37,0v.94a3.51,3.51,0,0,1-.47,0,2.56,2.56,0,0,1-2.79-2.87Z"/><path class="cls-2" d="M361.16,61.23a.31.31,0,0,0-.35-.33h-.67V60h1.12c.67,0,1,.26,1,.87v.53a5.65,5.65,0,0,1,0,.58h0a2.72,2.72,0,0,1,2.54-2.06,2,2,0,0,1,.43.05v1a2.9,2.9,0,0,0-.4,0,2.55,2.55,0,0,0-2.33,2,5,5,0,0,0-.22,1.51v3.26h-1.09Z"/><path class="cls-2" d="M370.64,59.8A3.29,3.29,0,0,1,374,63.37c0,.18,0,.52,0,.52h-6.17A3,3,0,0,0,370.92,67a3.68,3.68,0,0,0,2.42-.95l.52.79a4.63,4.63,0,0,1-3,1.1,4,4,0,0,1-4.21-4A3.86,3.86,0,0,1,370.64,59.8Zm2.25,3.26a2.23,2.23,0,0,0-2.27-2.38,2.72,2.72,0,0,0-2.76,2.38Z"/><path class="cls-2" d="M377.06,61.23a.31.31,0,0,0-.35-.33H376V60h1.13c.69,0,1,.28,1,.94v5.54a.31.31,0,0,0,.35.34h.67v.91H378c-.69,0-1-.28-1-.94Zm0-4.31h1.05v1.32H377Z"/><path class="cls-2" d="M381.79,61.23a.31.31,0,0,0-.35-.33h-.67V60h1.12c.67,0,1,.28,1,.86v.35a5.24,5.24,0,0,1,0,.56h0a3.42,3.42,0,0,1,3.2-2c2,0,2.7,1.1,2.7,3v3.67a.31.31,0,0,0,.35.34h.67v.91h-1.14c-.68,0-1-.28-1-.94v-3.7c0-1.22-.19-2.29-1.74-2.29A3,3,0,0,0,383,63a3.53,3.53,0,0,0-.13,1v3.71h-1.09Z"/><path class="cls-2" d="M396.47,63h.45v-.09c0-1.61-.61-2.18-2.08-2.18-.39,0-1.56.11-1.56.68v.49h-1v-.74c0-1.07,1.92-1.31,2.62-1.31,2.54,0,3.15,1.31,3.15,3v3.7a.31.31,0,0,0,.35.34H399v.91h-1.1c-.69,0-1-.29-1-.92,0-.34,0-.57,0-.57h0a2.81,2.81,0,0,1-2.66,1.67c-1.35,0-2.74-.75-2.74-2.29C391.55,63.05,395.08,63,396.47,63Zm-2,4.06a2.72,2.72,0,0,0,2.46-2.87v-.36h-.46c-1.26,0-3.79,0-3.79,1.77C392.67,66.27,393.26,67,394.46,67Z"/><path class="cls-2" d="M401.56,61.23a.31.31,0,0,0-.36-.33h-.67V60h1.12c.67,0,1,.28,1,.86v.35a5.24,5.24,0,0,1,0,.56h0a3.3,3.3,0,0,1,2.91-2A2.2,2.2,0,0,1,408,61.74h0A3.28,3.28,0,0,1,411,59.8c1.95,0,2.67,1.1,2.67,3v3.67a.31.31,0,0,0,.35.34h.67v.91h-1.13c-.69,0-1-.28-1-.94V63.06c0-1.26-.28-2.3-1.75-2.3a2.86,2.86,0,0,0-2.54,2.18,3.62,3.62,0,0,0-.14,1.12v3.66h-1.09V63.06c0-1.17-.17-2.3-1.69-2.3A2.91,2.91,0,0,0,402.77,63a3.51,3.51,0,0,0-.13,1v3.66h-1.08Z"/><path class="cls-2" d="M420.44,59.8a3.29,3.29,0,0,1,3.37,3.57c0,.18,0,.52,0,.52h-6.16A3,3,0,0,0,420.73,67a3.64,3.64,0,0,0,2.41-.95l.53.79a4.68,4.68,0,0,1-3,1.1,4,4,0,0,1-4.2-4A3.86,3.86,0,0,1,420.44,59.8Zm2.26,3.26a2.24,2.24,0,0,0-2.27-2.38,2.74,2.74,0,0,0-2.77,2.38Z"/><path class="cls-2" d="M426.79,61.23a.31.31,0,0,0-.35-.33h-.68V60h1.12c.67,0,1,.28,1,.86v.35a5.24,5.24,0,0,1,0,.56h0a3.41,3.41,0,0,1,3.19-2c2,0,2.7,1.1,2.7,3v3.67a.31.31,0,0,0,.35.34h.68v.91h-1.14c-.69,0-1-.28-1-.94v-3.7c0-1.22-.2-2.29-1.75-2.29A3,3,0,0,0,428,63a3.53,3.53,0,0,0-.13,1v3.71h-1.08Z"/><path class="cls-2" d="M437.4,60.86h-1.06V60h1.07V57.85h1.07V60h2v.87h-2V64.8c0,1.81,1.2,2,1.81,2a2.08,2.08,0,0,0,.37,0v.94a3.51,3.51,0,0,1-.47,0,2.56,2.56,0,0,1-2.79-2.87Z"/><path class="cls-2" d="M446.78,59.8a4.05,4.05,0,1,1-4.24,4A4.1,4.1,0,0,1,446.78,59.8Zm0,7.16a3.11,3.11,0,0,0,3.12-3.15,3.13,3.13,0,0,0-6.25,0A3.11,3.11,0,0,0,446.79,67Z"/></g></g></svg>