<?xml version="1.0" standalone="no"?>
<!DOCTYPE svg PUBLIC "-//W3C//DTD SVG 20010904//EN"
 "http://www.w3.org/TR/2001/REC-SVG-20010904/DTD/svg10.dtd">
<svg version="1.0" xmlns="http://www.w3.org/2000/svg"
 width="4801.000000pt" height="1070.000000pt" viewBox="0 0 4801.000000 1070.000000"
 preserveAspectRatio="xMidYMid meet">

<g transform="translate(0.000000,1070.000000) scale(0.100000,-0.100000)"
fill="#000000" stroke="none">
<path d="M18871 9114 c-230 -62 -381 -298 -341 -534 43 -255 284 -431 537
-392 325 51 499 396 348 691 -96 190 -333 292 -544 235z"/>
<path d="M31070 7460 l0 -240 313 -1 c487 0 949 -15 1052 -33 362 -63 560
-218 659 -516 48 -146 67 -266 73 -471 l6 -176 -349 -6 c-372 -6 -524 -16
-779 -48 -1032 -128 -1617 -532 -1730 -1193 -19 -113 -19 -344 0 -462 84 -519
472 -882 1086 -1016 93 -20 132 -22 359 -23 242 0 261 1 366 27 335 80 633
265 841 522 68 86 170 248 200 322 34 82 40 56 35 -148 -3 -143 0 -215 11
-279 32 -186 119 -285 294 -336 50 -14 125 -17 536 -21 l477 -3 0 255 0 256
-314 0 c-326 0 -351 3 -394 43 -61 56 -56 -32 -63 1302 -6 1326 -4 1290 -63
1524 -106 418 -358 694 -762 834 -303 105 -530 127 -1341 127 l-513 0 0 -240z
m2097 -2117 c-4 -182 -9 -238 -31 -335 -168 -777 -703 -1274 -1341 -1244 -303
14 -516 103 -694 292 -163 172 -236 406 -202 644 15 100 55 218 102 296 43 72
166 199 244 251 203 136 507 233 870 278 217 26 335 32 704 34 l354 1 -6 -217z"/>
<path d="M23914 7661 c-485 -86 -900 -436 -1055 -891 -13 -39 -27 -70 -31 -70
-5 0 -8 132 -8 293 0 321 -8 390 -56 478 -52 95 -143 156 -277 183 -63 13
-158 16 -557 16 l-480 0 0 -250 0 -250 335 0 c261 0 343 -3 368 -14 42 -17 83
-66 97 -114 6 -25 10 -532 10 -1527 -1 -1582 0 -1534 -47 -1587 -10 -11 -36
-29 -58 -39 -36 -17 -71 -19 -367 -19 l-328 0 0 -251 0 -250 508 4 c419 3 516
6 557 19 154 47 230 122 281 278 17 51 18 122 24 930 7 985 7 981 90 1305 101
396 262 690 507 926 214 206 452 314 718 325 66 3 139 7 163 10 l42 5 0 255 0
254 -167 -1 c-113 0 -201 -6 -269 -18z"/>
<path d="M12140 7421 l0 -251 318 0 c340 -1 357 -3 430 -54 20 -14 47 -41 60
-60 13 -18 319 -799 682 -1735 369 -955 672 -1723 690 -1750 129 -202 392
-277 598 -172 62 31 136 106 169 168 25 46 1092 2798 1293 3335 56 149 90 197
165 234 l55 26 335 -1 335 -2 0 256 0 255 -424 0 c-249 0 -457 -4 -502 -11
-200 -28 -310 -113 -404 -314 -66 -140 -1117 -2915 -1154 -3045 -19 -69 -45
-164 -57 -212 -22 -92 -34 -107 -45 -60 -24 100 -78 302 -102 382 -47 153
-1068 2824 -1127 2945 -83 173 -162 243 -321 287 -74 20 -106 22 -536 26
l-458 4 0 -251z"/>
<path d="M18000 7420 l0 -250 340 0 c265 0 348 -3 373 -14 37 -15 84 -66 92
-99 3 -12 7 -762 8 -1667 3 -1777 0 -1684 58 -1806 33 -70 84 -121 160 -159
99 -51 146 -55 642 -55 l457 0 0 250 0 250 -295 0 c-243 0 -302 3 -332 15 -45
19 -70 41 -92 80 -15 27 -16 174 -21 1700 -5 1544 -6 1674 -22 1720 -45 130
-125 213 -247 257 -66 23 -69 23 -593 26 l-528 3 0 -251z"/>
<path d="M24770 7421 l0 -250 333 -3 c307 -3 335 -4 372 -23 46 -23 121 -96
131 -128 4 -12 346 -833 760 -1825 415 -991 754 -1806 754 -1810 0 -12 -284
-670 -320 -742 -113 -225 -271 -400 -435 -480 -145 -72 -124 -70 -857 -70
l-658 0 0 -260 0 -260 628 0 c367 0 674 5 741 11 450 42 805 296 1030 739 27
52 470 1128 985 2390 515 1262 944 2310 953 2329 25 49 99 109 156 126 40 12
116 15 369 15 l318 0 0 245 0 245 -442 0 c-244 0 -473 -5 -511 -10 -192 -28
-300 -112 -392 -304 -56 -119 -1140 -2912 -1184 -3051 -22 -71 -48 -158 -58
-193 -10 -35 -22 -64 -26 -65 -5 -1 -29 62 -53 141 -57 185 -57 183 -688 1742
-296 729 -560 1371 -588 1428 -80 164 -169 246 -313 290 -41 13 -136 16 -527
19 l-478 4 0 -250z"/>
</g>
</svg>
